%TF.GenerationSoftware,KiCad,Pcbnew,10.0.6*%
%TF.CreationDate,2026-09-23T20:02:54-03:00*%
%TF.ProjectId,blare,626c6172-652e-46b6-9963-61645f706362,rev?*%
%TF.SameCoordinates,Original*%
%TF.FileFunction,Legend,Top*%
%TF.FilePolarity,Positive*%
%FSLAX46Y46*%
G04 Gerber Fmt 4.6, Leading zero omitted, Abs format (unit mm)*
G04 Created by KiCad (PCBNEW 10.0.6) date 2026-09-23 20:02:54*
%MOMM*%
%LPD*%
G01*
G04 APERTURE LIST*
%ADD10C,0.000000*%
%ADD11C,0.101600*%
%ADD12C,0.150000*%
%ADD13C,0.127000*%
%ADD14C,0.100000*%
%ADD15C,0.504000*%
%ADD16C,0.120000*%
G04 APERTURE END LIST*
D10*
G36*
X139679870Y-133251737D02*
G01*
X139881410Y-133267064D01*
X140080020Y-133292305D01*
X140275453Y-133327209D01*
X140467457Y-133371528D01*
X140655784Y-133425012D01*
X140840185Y-133487411D01*
X141020409Y-133558476D01*
X141196208Y-133637958D01*
X141367331Y-133725607D01*
X141533531Y-133821174D01*
X141694556Y-133924409D01*
X141850158Y-134035063D01*
X142000087Y-134152887D01*
X142144094Y-134277630D01*
X142281929Y-134409044D01*
X142413343Y-134546879D01*
X142538087Y-134690886D01*
X142655910Y-134840815D01*
X142766564Y-134996417D01*
X142869799Y-135157443D01*
X142965366Y-135323642D01*
X143053016Y-135494765D01*
X143132497Y-135670564D01*
X143203563Y-135850788D01*
X143265962Y-136035189D01*
X143319446Y-136223516D01*
X143363764Y-136415521D01*
X143398669Y-136610953D01*
X143423909Y-136809564D01*
X143439236Y-137011103D01*
X143444401Y-137215323D01*
X143441094Y-137378707D01*
X143431255Y-137540421D01*
X143415010Y-137700337D01*
X143392485Y-137858325D01*
X143363804Y-138014256D01*
X143329093Y-138168002D01*
X143288478Y-138319432D01*
X143242083Y-138468419D01*
X143190033Y-138614833D01*
X143132455Y-138758544D01*
X143069473Y-138899424D01*
X143001213Y-139037345D01*
X142927800Y-139172176D01*
X142849359Y-139303789D01*
X142766015Y-139432054D01*
X142677895Y-139556843D01*
X142585123Y-139678027D01*
X142487824Y-139795476D01*
X142386123Y-139909062D01*
X142280147Y-140018655D01*
X142170020Y-140124127D01*
X142055868Y-140225348D01*
X141937816Y-140322189D01*
X141815989Y-140414522D01*
X141690512Y-140502217D01*
X141561512Y-140585145D01*
X141429112Y-140663177D01*
X141293439Y-140736184D01*
X141154617Y-140804037D01*
X141012773Y-140866607D01*
X140868031Y-140923765D01*
X140720516Y-140975382D01*
X140701838Y-140978629D01*
X140683933Y-140980950D01*
X140666789Y-140982379D01*
X140650394Y-140982949D01*
X140634737Y-140982695D01*
X140619806Y-140981650D01*
X140605589Y-140979847D01*
X140592074Y-140977320D01*
X140579249Y-140974103D01*
X140567103Y-140970228D01*
X140555624Y-140965731D01*
X140544800Y-140960645D01*
X140534618Y-140955002D01*
X140525069Y-140948837D01*
X140516138Y-140942183D01*
X140507815Y-140935074D01*
X140500089Y-140927544D01*
X140492946Y-140919626D01*
X140486376Y-140911354D01*
X140480366Y-140902760D01*
X140474904Y-140893880D01*
X140469980Y-140884747D01*
X140465580Y-140875393D01*
X140461694Y-140865854D01*
X140458309Y-140856162D01*
X140455414Y-140846350D01*
X140452997Y-140836454D01*
X140451046Y-140826505D01*
X140448494Y-140806588D01*
X140447664Y-140786866D01*
X140452625Y-139700090D01*
X140452251Y-139665616D01*
X140451143Y-139631892D01*
X140449323Y-139598919D01*
X140446812Y-139566696D01*
X140443633Y-139535221D01*
X140439806Y-139504495D01*
X140430301Y-139445284D01*
X140418470Y-139389058D01*
X140404489Y-139335811D01*
X140388530Y-139285536D01*
X140370770Y-139238227D01*
X140351381Y-139193880D01*
X140330540Y-139152489D01*
X140308419Y-139114046D01*
X140285193Y-139078547D01*
X140261038Y-139045986D01*
X140236127Y-139016357D01*
X140210634Y-138989654D01*
X140184735Y-138965872D01*
X140350592Y-138944556D01*
X140516071Y-138916266D01*
X140679748Y-138879609D01*
X140840198Y-138833193D01*
X140995998Y-138775624D01*
X141145722Y-138705510D01*
X141217861Y-138665313D01*
X141287947Y-138621458D01*
X141355802Y-138573770D01*
X141421248Y-138522075D01*
X141484107Y-138466199D01*
X141544201Y-138405968D01*
X141601352Y-138341208D01*
X141655381Y-138271744D01*
X141706112Y-138197404D01*
X141753365Y-138118011D01*
X141796962Y-138033394D01*
X141836727Y-137943376D01*
X141872480Y-137847785D01*
X141904044Y-137746446D01*
X141931240Y-137639185D01*
X141953890Y-137525827D01*
X141971817Y-137406200D01*
X141984843Y-137280128D01*
X141992789Y-137147438D01*
X141995477Y-137007955D01*
X141993688Y-136927649D01*
X141988375Y-136849199D01*
X141979617Y-136772599D01*
X141967494Y-136697845D01*
X141952087Y-136624932D01*
X141933475Y-136553855D01*
X141911738Y-136484609D01*
X141886956Y-136417190D01*
X141859210Y-136351593D01*
X141828578Y-136287812D01*
X141795142Y-136225843D01*
X141758980Y-136165681D01*
X141720173Y-136107321D01*
X141678800Y-136050759D01*
X141634943Y-135995989D01*
X141588680Y-135943007D01*
X141607119Y-135891525D01*
X141629220Y-135813485D01*
X141640027Y-135765093D01*
X141649810Y-135710766D01*
X141657921Y-135650737D01*
X141663714Y-135585241D01*
X141666542Y-135514513D01*
X141665758Y-135438787D01*
X141660716Y-135358298D01*
X141650769Y-135273281D01*
X141635270Y-135183969D01*
X141613572Y-135090597D01*
X141585028Y-134993400D01*
X141548992Y-134892611D01*
X141533237Y-134889038D01*
X141485275Y-134883992D01*
X141448889Y-134883576D01*
X141404059Y-134885984D01*
X141350654Y-134892279D01*
X141288543Y-134903525D01*
X141217595Y-134920787D01*
X141137680Y-134945128D01*
X141048666Y-134977611D01*
X140950424Y-135019301D01*
X140842821Y-135071262D01*
X140725728Y-135134558D01*
X140599014Y-135210252D01*
X140462547Y-135299408D01*
X140342593Y-135268381D01*
X140221011Y-135241505D01*
X140098034Y-135218745D01*
X139973894Y-135200065D01*
X139848824Y-135185433D01*
X139723057Y-135174811D01*
X139596824Y-135168166D01*
X139470359Y-135165463D01*
X139343894Y-135168166D01*
X139217662Y-135174811D01*
X139091894Y-135185433D01*
X138966824Y-135200065D01*
X138842685Y-135218745D01*
X138719708Y-135241505D01*
X138598126Y-135268381D01*
X138478172Y-135299408D01*
X138408260Y-135253081D01*
X138340832Y-135210252D01*
X138275868Y-135170789D01*
X138213353Y-135134558D01*
X138153268Y-135101427D01*
X138095597Y-135071262D01*
X138040322Y-135043932D01*
X137987427Y-135019301D01*
X137936893Y-134997239D01*
X137888703Y-134977611D01*
X137842841Y-134960285D01*
X137799289Y-134945128D01*
X137758030Y-134932006D01*
X137719046Y-134920787D01*
X137682320Y-134911338D01*
X137647835Y-134903525D01*
X137615574Y-134897217D01*
X137585519Y-134892279D01*
X137557654Y-134888579D01*
X137531960Y-134885984D01*
X137508421Y-134884361D01*
X137487020Y-134883576D01*
X137450560Y-134883992D01*
X137422443Y-134886167D01*
X137402530Y-134889038D01*
X137386766Y-134892611D01*
X137367771Y-134943440D01*
X137350731Y-134993400D01*
X137335566Y-135042462D01*
X137322196Y-135090597D01*
X137310541Y-135137776D01*
X137300521Y-135183969D01*
X137292056Y-135229147D01*
X137285066Y-135273281D01*
X137279472Y-135316341D01*
X137275193Y-135358298D01*
X137272149Y-135399124D01*
X137270261Y-135438787D01*
X137269631Y-135514513D01*
X137272664Y-135585241D01*
X137278720Y-135650737D01*
X137287159Y-135710766D01*
X137297343Y-135765093D01*
X137308631Y-135813485D01*
X137320384Y-135855707D01*
X137331963Y-135891525D01*
X137342728Y-135920703D01*
X137352039Y-135943007D01*
X137305485Y-135995989D01*
X137261373Y-136050759D01*
X137219780Y-136107321D01*
X137180783Y-136165681D01*
X137144461Y-136225843D01*
X137110891Y-136287812D01*
X137080150Y-136351593D01*
X137052316Y-136417190D01*
X137027466Y-136484609D01*
X137005678Y-136553855D01*
X136987029Y-136624932D01*
X136971597Y-136697845D01*
X136959460Y-136772599D01*
X136950694Y-136849199D01*
X136945378Y-136927649D01*
X136943589Y-137007955D01*
X136946273Y-137147094D01*
X136954207Y-137279493D01*
X136967214Y-137405326D01*
X136985115Y-137524762D01*
X137007733Y-137637975D01*
X137034889Y-137745136D01*
X137066406Y-137846415D01*
X137102106Y-137941986D01*
X137141811Y-138032019D01*
X137185343Y-138116687D01*
X137232525Y-138196160D01*
X137283178Y-138270611D01*
X137337125Y-138340211D01*
X137394188Y-138405131D01*
X137454188Y-138465544D01*
X137516949Y-138521620D01*
X137582292Y-138573532D01*
X137650039Y-138621451D01*
X137720013Y-138665549D01*
X137792035Y-138705998D01*
X137865928Y-138742968D01*
X137941514Y-138776632D01*
X138097053Y-138834728D01*
X138257230Y-138881657D01*
X138420621Y-138918794D01*
X138585803Y-138947510D01*
X138751354Y-138969179D01*
X138730229Y-138988672D01*
X138709449Y-139009948D01*
X138689094Y-139033017D01*
X138669245Y-139057887D01*
X138649984Y-139084567D01*
X138631390Y-139113066D01*
X138613546Y-139143392D01*
X138596531Y-139175554D01*
X138580428Y-139209561D01*
X138565316Y-139245422D01*
X138551276Y-139283145D01*
X138538390Y-139322739D01*
X138526739Y-139364213D01*
X138516403Y-139407575D01*
X138507463Y-139452834D01*
X138500000Y-139500000D01*
X138453518Y-139519693D01*
X138399708Y-139539860D01*
X138339404Y-139559249D01*
X138273440Y-139576605D01*
X138202651Y-139590674D01*
X138127871Y-139600203D01*
X138049935Y-139603937D01*
X138010043Y-139603240D01*
X137969676Y-139600624D01*
X137928936Y-139595932D01*
X137887928Y-139589009D01*
X137846757Y-139579696D01*
X137805527Y-139567838D01*
X137764342Y-139553277D01*
X137723306Y-139535858D01*
X137682523Y-139515422D01*
X137642099Y-139491814D01*
X137602137Y-139464877D01*
X137562741Y-139434454D01*
X137524016Y-139400388D01*
X137486066Y-139362522D01*
X137448995Y-139320701D01*
X137412908Y-139274766D01*
X137377909Y-139224562D01*
X137344102Y-139169932D01*
X137334328Y-139153507D01*
X137305163Y-139109967D01*
X137283384Y-139080717D01*
X137256845Y-139047916D01*
X137225577Y-139012638D01*
X137189610Y-138975959D01*
X137148972Y-138938955D01*
X137103693Y-138902700D01*
X137053803Y-138868271D01*
X137027138Y-138852077D01*
X136999332Y-138836743D01*
X136970387Y-138822403D01*
X136940308Y-138809191D01*
X136909099Y-138797243D01*
X136876762Y-138786692D01*
X136843303Y-138777673D01*
X136808724Y-138770320D01*
X136773029Y-138764768D01*
X136736221Y-138761151D01*
X136720282Y-138761418D01*
X136681325Y-138764220D01*
X136657368Y-138767509D01*
X136632640Y-138772557D01*
X136608803Y-138779738D01*
X136597737Y-138784246D01*
X136587517Y-138789428D01*
X136578350Y-138795331D01*
X136570444Y-138802002D01*
X136564007Y-138809487D01*
X136559246Y-138817833D01*
X136556368Y-138827088D01*
X136555582Y-138837299D01*
X136557096Y-138848511D01*
X136561116Y-138860773D01*
X136567850Y-138874130D01*
X136577507Y-138888630D01*
X136590293Y-138904319D01*
X136606417Y-138921246D01*
X136626086Y-138939455D01*
X136649508Y-138958995D01*
X136676890Y-138979911D01*
X136708440Y-139002252D01*
X136720005Y-139008405D01*
X136752034Y-139028530D01*
X136774473Y-139044613D01*
X136800527Y-139065126D01*
X136829698Y-139090383D01*
X136861485Y-139120694D01*
X136895388Y-139156374D01*
X136930907Y-139197734D01*
X136967542Y-139245087D01*
X137004794Y-139298745D01*
X137042162Y-139359021D01*
X137079146Y-139426228D01*
X137115246Y-139500677D01*
X137149963Y-139582681D01*
X137162124Y-139615382D01*
X137178727Y-139652340D01*
X137203593Y-139699553D01*
X137237656Y-139754408D01*
X137281850Y-139814295D01*
X137337112Y-139876600D01*
X137404377Y-139938711D01*
X137442802Y-139968878D01*
X137484578Y-139998016D01*
X137529822Y-140025800D01*
X137578651Y-140051903D01*
X137631182Y-140075998D01*
X137687532Y-140097760D01*
X137747817Y-140116860D01*
X137812155Y-140132973D01*
X137880662Y-140145773D01*
X137953456Y-140154932D01*
X138030652Y-140160124D01*
X138112368Y-140161023D01*
X138198721Y-140157302D01*
X138289828Y-140148635D01*
X138385805Y-140134695D01*
X138486770Y-140115155D01*
X138491732Y-140789843D01*
X138490866Y-140809783D01*
X138488218Y-140829867D01*
X138483709Y-140849834D01*
X138477262Y-140869425D01*
X138473288Y-140878998D01*
X138468800Y-140888380D01*
X138463789Y-140897539D01*
X138458245Y-140906441D01*
X138452159Y-140915054D01*
X138445520Y-140923346D01*
X138438319Y-140931284D01*
X138430547Y-140938837D01*
X138422193Y-140945970D01*
X138413248Y-140952653D01*
X138403702Y-140958852D01*
X138393546Y-140964535D01*
X138382770Y-140969670D01*
X138371364Y-140974224D01*
X138359319Y-140978165D01*
X138346624Y-140981459D01*
X138333271Y-140984076D01*
X138319249Y-140985982D01*
X138304548Y-140987144D01*
X138289160Y-140987531D01*
X138273074Y-140987110D01*
X138256281Y-140985849D01*
X138238771Y-140983714D01*
X138220534Y-140980674D01*
X137930245Y-140871269D01*
X137651280Y-140740313D01*
X137384660Y-140588824D01*
X137131406Y-140417825D01*
X136892542Y-140228334D01*
X136669088Y-140021372D01*
X136462066Y-139797960D01*
X136272498Y-139559117D01*
X136101405Y-139305865D01*
X135949810Y-139039223D01*
X135818734Y-138760211D01*
X135709199Y-138469851D01*
X135622226Y-138169161D01*
X135558838Y-137859163D01*
X135520055Y-137540877D01*
X135510211Y-137378944D01*
X135506901Y-137215323D01*
X135512063Y-137011103D01*
X135527382Y-136809564D01*
X135552610Y-136610953D01*
X135587497Y-136415521D01*
X135631795Y-136223516D01*
X135685255Y-136035189D01*
X135747628Y-135850788D01*
X135818665Y-135670564D01*
X135898117Y-135494765D01*
X135985736Y-135323642D01*
X136081272Y-135157443D01*
X136184476Y-134996417D01*
X136295100Y-134840815D01*
X136412895Y-134690886D01*
X136537611Y-134546879D01*
X136669001Y-134409044D01*
X136806814Y-134277630D01*
X136950803Y-134152887D01*
X137100717Y-134035063D01*
X137256310Y-133924409D01*
X137417330Y-133821174D01*
X137583530Y-133725607D01*
X137754661Y-133637958D01*
X137930474Y-133558476D01*
X138110719Y-133487411D01*
X138295149Y-133425012D01*
X138483513Y-133371528D01*
X138675564Y-133327209D01*
X138871052Y-133292305D01*
X139069729Y-133267064D01*
X139271344Y-133251737D01*
X139475651Y-133246573D01*
X139679870Y-133251737D01*
G37*
G36*
X117358665Y-148031756D02*
G01*
X117458757Y-148039655D01*
X117558258Y-148052707D01*
X117656984Y-148070821D01*
X117754755Y-148093906D01*
X117851386Y-148121870D01*
X117946697Y-148154622D01*
X118040503Y-148192070D01*
X118132624Y-148234122D01*
X118222877Y-148280686D01*
X118311079Y-148331672D01*
X118397048Y-148386988D01*
X118480601Y-148446542D01*
X118561556Y-148510242D01*
X118639731Y-148577997D01*
X118714943Y-148649716D01*
X118787010Y-148725307D01*
X118855749Y-148804678D01*
X118920979Y-148887737D01*
X118982516Y-148974394D01*
X119040178Y-149064556D01*
X119093783Y-149158133D01*
X119143149Y-149255032D01*
X119188092Y-149355161D01*
X119228432Y-149458431D01*
X119263984Y-149564747D01*
X119294567Y-149674021D01*
X119319999Y-149786158D01*
X119340097Y-149901069D01*
X119354678Y-150018662D01*
X119363561Y-150138844D01*
X119366562Y-150261525D01*
X119363623Y-150393389D01*
X119354944Y-150523861D01*
X119340728Y-150652911D01*
X119321180Y-150780511D01*
X119296504Y-150906629D01*
X119266905Y-151031237D01*
X119232588Y-151154306D01*
X119193756Y-151275804D01*
X119150614Y-151395703D01*
X119103367Y-151513974D01*
X119052219Y-151630586D01*
X118997375Y-151745510D01*
X118877414Y-151970176D01*
X118745121Y-152187733D01*
X118602131Y-152397947D01*
X118450079Y-152600579D01*
X118290601Y-152795392D01*
X118125333Y-152982151D01*
X117955910Y-153160618D01*
X117783968Y-153330555D01*
X117611142Y-153491727D01*
X117439067Y-153643896D01*
X117221776Y-153824823D01*
X117000000Y-154000000D01*
X116773858Y-154169345D01*
X116543464Y-154332779D01*
X116308935Y-154490221D01*
X116070387Y-154641591D01*
X115827936Y-154786811D01*
X115581697Y-154925798D01*
X115572437Y-154931420D01*
X115569791Y-154932413D01*
X115570122Y-154933405D01*
X115559953Y-154938451D01*
X115549668Y-154943171D01*
X115539275Y-154947565D01*
X115528781Y-154951631D01*
X115518193Y-154955370D01*
X115507521Y-154958781D01*
X115496771Y-154961864D01*
X115485951Y-154964617D01*
X115475069Y-154967042D01*
X115464133Y-154969136D01*
X115453151Y-154970900D01*
X115442130Y-154972333D01*
X115431077Y-154973434D01*
X115420002Y-154974204D01*
X115408911Y-154974642D01*
X115397812Y-154974746D01*
X115386713Y-154974645D01*
X115375622Y-154974218D01*
X115364547Y-154973463D01*
X115353494Y-154972379D01*
X115342473Y-154970966D01*
X115331490Y-154969223D01*
X115320554Y-154967148D01*
X115309673Y-154964741D01*
X115298853Y-154962001D01*
X115288103Y-154958926D01*
X115277430Y-154955517D01*
X115266843Y-154951771D01*
X115256349Y-154947687D01*
X115245956Y-154943266D01*
X115235671Y-154938505D01*
X115225502Y-154933405D01*
X115225833Y-154932413D01*
X115223187Y-154931420D01*
X115213922Y-154925796D01*
X114967684Y-154786808D01*
X114725233Y-154641589D01*
X114486685Y-154490218D01*
X114252155Y-154332776D01*
X114021761Y-154169342D01*
X113795618Y-153999996D01*
X113573843Y-153824820D01*
X113356552Y-153643892D01*
X113184478Y-153491724D01*
X113011653Y-153330553D01*
X112839711Y-153160616D01*
X112670289Y-152982149D01*
X112505021Y-152795391D01*
X112345543Y-152600578D01*
X112193492Y-152397946D01*
X112050502Y-152187733D01*
X111918209Y-151970175D01*
X111798249Y-151745510D01*
X111692257Y-151513974D01*
X111601868Y-151275804D01*
X111528719Y-151031237D01*
X111474444Y-150780511D01*
X111454896Y-150652911D01*
X111440680Y-150523861D01*
X111432001Y-150393389D01*
X111429077Y-150262186D01*
X112171549Y-150262186D01*
X112173824Y-150361949D01*
X112180568Y-150461231D01*
X112191654Y-150560005D01*
X112206958Y-150658244D01*
X112226355Y-150755920D01*
X112249721Y-150853006D01*
X112276929Y-150949476D01*
X112307856Y-151045301D01*
X112380364Y-151234910D01*
X112466246Y-151421616D01*
X112564502Y-151605199D01*
X112674133Y-151785442D01*
X112794140Y-151962128D01*
X112923522Y-152135038D01*
X113061281Y-152303953D01*
X113206417Y-152468657D01*
X113357930Y-152628931D01*
X113514821Y-152784557D01*
X113676092Y-152935317D01*
X113840741Y-153080993D01*
X114023718Y-153233732D01*
X114210125Y-153382111D01*
X114399882Y-153526073D01*
X114592910Y-153665563D01*
X114789131Y-153800525D01*
X114988465Y-153930904D01*
X115190834Y-154056644D01*
X115396158Y-154177689D01*
X115397481Y-154177027D01*
X115398806Y-154177687D01*
X115604195Y-154056742D01*
X115806613Y-153931072D01*
X116005978Y-153800734D01*
X116202212Y-153665784D01*
X116395233Y-153526278D01*
X116584962Y-153382273D01*
X116771319Y-153233825D01*
X116954223Y-153080991D01*
X116954223Y-153080992D01*
X117118930Y-152935316D01*
X117280251Y-152784556D01*
X117437186Y-152628930D01*
X117588737Y-152468657D01*
X117733905Y-152303953D01*
X117871690Y-152135037D01*
X118001094Y-151962128D01*
X118121118Y-151785443D01*
X118230763Y-151605199D01*
X118329029Y-151421616D01*
X118414919Y-151234911D01*
X118487432Y-151045302D01*
X118545570Y-150853007D01*
X118588334Y-150658244D01*
X118603639Y-150560005D01*
X118614725Y-150461231D01*
X118621469Y-150361949D01*
X118623744Y-150262187D01*
X118621712Y-150177781D01*
X118615704Y-150095373D01*
X118605858Y-150015008D01*
X118592308Y-149936730D01*
X118575190Y-149860584D01*
X118554639Y-149786615D01*
X118530792Y-149714868D01*
X118503782Y-149645387D01*
X118473747Y-149578217D01*
X118440822Y-149513402D01*
X118405141Y-149450988D01*
X118366841Y-149391019D01*
X118326057Y-149333539D01*
X118282925Y-149278594D01*
X118237580Y-149226228D01*
X118190158Y-149176485D01*
X118140794Y-149129411D01*
X118089624Y-149085051D01*
X118036783Y-149043448D01*
X117982407Y-149004647D01*
X117926632Y-148968694D01*
X117869592Y-148935632D01*
X117811424Y-148905508D01*
X117752262Y-148878364D01*
X117692244Y-148854247D01*
X117631503Y-148833200D01*
X117570176Y-148815268D01*
X117508397Y-148800497D01*
X117446304Y-148788930D01*
X117384031Y-148780613D01*
X117321713Y-148775590D01*
X117259486Y-148773905D01*
X117195824Y-148775331D01*
X117132623Y-148779577D01*
X117069944Y-148786598D01*
X117007849Y-148796348D01*
X116946400Y-148808782D01*
X116885659Y-148823854D01*
X116825687Y-148841518D01*
X116766545Y-148861729D01*
X116708296Y-148884442D01*
X116651000Y-148909610D01*
X116594721Y-148937189D01*
X116539519Y-148967132D01*
X116485456Y-148999394D01*
X116432593Y-149033929D01*
X116380993Y-149070692D01*
X116330716Y-149109637D01*
X116281825Y-149150718D01*
X116234382Y-149193891D01*
X116188447Y-149239108D01*
X116144083Y-149286326D01*
X116101351Y-149335497D01*
X116060313Y-149386577D01*
X116021030Y-149439520D01*
X115983564Y-149494280D01*
X115947977Y-149550812D01*
X115914331Y-149609070D01*
X115882687Y-149669008D01*
X115853106Y-149730581D01*
X115825650Y-149793744D01*
X115800382Y-149858450D01*
X115777362Y-149924655D01*
X115756653Y-149992312D01*
X115751952Y-150007442D01*
X115746664Y-150022196D01*
X115740807Y-150036566D01*
X115734397Y-150050545D01*
X115727451Y-150064127D01*
X115719985Y-150077304D01*
X115712016Y-150090070D01*
X115703560Y-150102419D01*
X115685256Y-150125833D01*
X115665205Y-150147494D01*
X115643539Y-150167346D01*
X115620392Y-150185333D01*
X115595897Y-150201403D01*
X115570185Y-150215499D01*
X115543390Y-150227567D01*
X115515644Y-150237553D01*
X115487081Y-150245400D01*
X115457833Y-150251056D01*
X115428032Y-150254465D01*
X115397812Y-150255572D01*
X115382658Y-150255311D01*
X115367592Y-150254469D01*
X115352630Y-150253053D01*
X115337790Y-150251070D01*
X115323088Y-150248526D01*
X115308540Y-150245429D01*
X115294163Y-150241784D01*
X115279974Y-150237599D01*
X115265989Y-150232880D01*
X115252224Y-150227634D01*
X115238696Y-150221867D01*
X115225421Y-150215586D01*
X115212417Y-150208798D01*
X115199699Y-150201509D01*
X115187284Y-150193727D01*
X115175190Y-150185457D01*
X115163431Y-150176707D01*
X115152025Y-150167483D01*
X115140988Y-150157791D01*
X115130338Y-150147639D01*
X115120089Y-150137033D01*
X115110260Y-150125980D01*
X115100866Y-150114486D01*
X115091923Y-150102558D01*
X115083450Y-150090203D01*
X115075461Y-150077427D01*
X115067974Y-150064237D01*
X115061005Y-150050640D01*
X115054570Y-150036642D01*
X115048687Y-150022250D01*
X115043371Y-150007471D01*
X115038640Y-149992312D01*
X115017931Y-149924655D01*
X114994911Y-149858450D01*
X114969643Y-149793744D01*
X114942187Y-149730581D01*
X114880962Y-149609070D01*
X114811729Y-149494280D01*
X114734981Y-149386577D01*
X114651210Y-149286325D01*
X114560911Y-149193890D01*
X114464577Y-149109637D01*
X114362700Y-149033929D01*
X114255774Y-148967132D01*
X114200572Y-148937189D01*
X114144293Y-148909610D01*
X114086998Y-148884442D01*
X114028748Y-148861729D01*
X113969607Y-148841518D01*
X113909634Y-148823853D01*
X113848893Y-148808781D01*
X113787444Y-148796348D01*
X113725349Y-148786597D01*
X113662670Y-148779577D01*
X113599469Y-148775331D01*
X113535807Y-148773905D01*
X113473580Y-148775589D01*
X113411263Y-148780613D01*
X113348989Y-148788930D01*
X113286896Y-148800497D01*
X113225117Y-148815268D01*
X113163790Y-148833200D01*
X113103049Y-148854246D01*
X113043031Y-148878364D01*
X112983869Y-148905507D01*
X112925701Y-148935632D01*
X112868661Y-148968694D01*
X112812886Y-149004647D01*
X112758510Y-149043447D01*
X112705669Y-149085050D01*
X112654499Y-149129411D01*
X112605135Y-149176485D01*
X112557713Y-149226228D01*
X112512368Y-149278594D01*
X112469236Y-149333539D01*
X112428452Y-149391019D01*
X112390152Y-149450988D01*
X112354471Y-149513402D01*
X112321546Y-149578217D01*
X112291511Y-149645387D01*
X112264501Y-149714868D01*
X112240654Y-149786615D01*
X112220103Y-149860584D01*
X112202985Y-149936730D01*
X112189435Y-150015007D01*
X112179589Y-150095372D01*
X112173581Y-150177780D01*
X112171549Y-150262186D01*
X111429077Y-150262186D01*
X111429062Y-150261525D01*
X111432063Y-150138844D01*
X111440946Y-150018662D01*
X111455527Y-149901069D01*
X111475625Y-149786158D01*
X111501057Y-149674021D01*
X111531640Y-149564748D01*
X111567192Y-149458431D01*
X111607532Y-149355161D01*
X111652475Y-149255032D01*
X111701841Y-149158133D01*
X111755446Y-149064556D01*
X111813108Y-148974394D01*
X111874645Y-148887737D01*
X111939875Y-148804678D01*
X112008614Y-148725307D01*
X112080681Y-148649716D01*
X112155893Y-148577998D01*
X112234068Y-148510242D01*
X112315023Y-148446542D01*
X112398576Y-148386988D01*
X112484545Y-148331672D01*
X112572747Y-148280686D01*
X112663000Y-148234122D01*
X112755121Y-148192070D01*
X112848927Y-148154622D01*
X112944238Y-148121871D01*
X113040869Y-148093906D01*
X113138640Y-148070821D01*
X113237366Y-148052707D01*
X113336867Y-148039655D01*
X113436959Y-148031756D01*
X113537460Y-148029103D01*
X113609112Y-148030263D01*
X113680181Y-148033719D01*
X113750637Y-148039436D01*
X113820453Y-148047379D01*
X113889599Y-148057513D01*
X113958046Y-148069803D01*
X114025766Y-148084214D01*
X114092729Y-148100711D01*
X114224270Y-148139822D01*
X114352440Y-148186855D01*
X114477006Y-148241530D01*
X114597737Y-148303567D01*
X114714402Y-148372684D01*
X114826771Y-148448602D01*
X114934612Y-148531041D01*
X115037694Y-148619718D01*
X115135787Y-148714354D01*
X115228658Y-148814669D01*
X115316076Y-148920382D01*
X115397812Y-149031212D01*
X115479548Y-148920382D01*
X115566966Y-148814669D01*
X115659837Y-148714354D01*
X115757930Y-148619718D01*
X115861012Y-148531041D01*
X115968853Y-148448603D01*
X116081222Y-148372684D01*
X116197887Y-148303567D01*
X116318618Y-148241530D01*
X116443184Y-148186855D01*
X116571354Y-148139822D01*
X116702895Y-148100711D01*
X116837578Y-148069803D01*
X116975171Y-148047379D01*
X117115443Y-148033719D01*
X117258164Y-148029103D01*
X117358665Y-148031756D01*
G37*
G36*
X89970954Y-133377496D02*
G01*
X90485263Y-133408115D01*
X90948413Y-133461987D01*
X91161530Y-133498371D01*
X91362729Y-133541440D01*
X91552301Y-133591485D01*
X91730536Y-133648798D01*
X91897726Y-133713668D01*
X92054160Y-133786386D01*
X92200130Y-133867244D01*
X92335926Y-133956531D01*
X92461838Y-134054538D01*
X92578159Y-134161557D01*
X92685178Y-134277877D01*
X92783185Y-134403790D01*
X92872472Y-134539586D01*
X92953330Y-134685556D01*
X93026048Y-134841990D01*
X93090918Y-135009180D01*
X93148231Y-135187415D01*
X93198276Y-135376987D01*
X93241345Y-135578186D01*
X93277729Y-135791302D01*
X93331601Y-136254452D01*
X93362220Y-136768762D01*
X93371909Y-137336557D01*
X93362220Y-137904352D01*
X93331601Y-138418661D01*
X93277729Y-138881811D01*
X93241345Y-139094928D01*
X93198276Y-139296127D01*
X93148231Y-139485699D01*
X93090918Y-139663934D01*
X93026048Y-139831124D01*
X92953330Y-139987558D01*
X92872472Y-140133528D01*
X92783185Y-140269324D01*
X92685178Y-140395236D01*
X92578159Y-140511557D01*
X92461838Y-140618576D01*
X92335926Y-140716583D01*
X92200130Y-140805870D01*
X92054160Y-140886728D01*
X91897726Y-140959446D01*
X91730536Y-141024316D01*
X91552301Y-141081629D01*
X91362729Y-141131674D01*
X91161530Y-141174743D01*
X90948413Y-141211127D01*
X90485263Y-141264999D01*
X89970954Y-141295618D01*
X89403159Y-141305307D01*
X88835364Y-141295618D01*
X88321055Y-141264999D01*
X87857904Y-141211127D01*
X87644788Y-141174743D01*
X87443589Y-141131674D01*
X87254017Y-141081629D01*
X87075782Y-141024316D01*
X86908592Y-140959446D01*
X86752158Y-140886728D01*
X86606188Y-140805870D01*
X86470392Y-140716583D01*
X86344479Y-140618576D01*
X86228159Y-140511557D01*
X86121140Y-140395236D01*
X86023133Y-140269324D01*
X85933846Y-140133528D01*
X85852988Y-139987558D01*
X85780270Y-139831124D01*
X85775955Y-139820002D01*
X87914878Y-139820002D01*
X89000000Y-139820002D01*
X89000000Y-138000000D01*
X89000826Y-137950312D01*
X89003263Y-137901847D01*
X89007250Y-137854628D01*
X89012724Y-137808678D01*
X89019626Y-137764021D01*
X89027893Y-137720680D01*
X89037463Y-137678677D01*
X89048276Y-137638037D01*
X89060271Y-137598783D01*
X89073385Y-137560938D01*
X89087557Y-137524524D01*
X89102727Y-137489566D01*
X89118831Y-137456086D01*
X89135810Y-137424109D01*
X89153602Y-137393656D01*
X89172145Y-137364752D01*
X89191378Y-137337419D01*
X89211239Y-137311681D01*
X89231667Y-137287562D01*
X89252601Y-137265084D01*
X89273979Y-137244270D01*
X89295740Y-137225144D01*
X89317823Y-137207729D01*
X89340166Y-137192049D01*
X89362707Y-137178127D01*
X89385385Y-137165985D01*
X89408139Y-137155647D01*
X89430908Y-137147137D01*
X89453630Y-137140478D01*
X89476243Y-137135692D01*
X89498686Y-137132804D01*
X89520899Y-137131836D01*
X89540517Y-137132459D01*
X89559259Y-137134318D01*
X89577144Y-137137391D01*
X89594187Y-137141660D01*
X89610404Y-137147106D01*
X89625813Y-137153709D01*
X89640429Y-137161449D01*
X89654270Y-137170309D01*
X89667352Y-137180267D01*
X89679691Y-137191306D01*
X89691304Y-137203405D01*
X89702207Y-137216546D01*
X89712418Y-137230708D01*
X89721951Y-137245873D01*
X89739056Y-137279134D01*
X89753652Y-137316174D01*
X89765874Y-137356838D01*
X89775852Y-137400972D01*
X89783720Y-137448421D01*
X89789609Y-137499031D01*
X89793651Y-137552646D01*
X89795980Y-137609114D01*
X89796727Y-137668278D01*
X89796727Y-139820333D01*
X90891440Y-139820333D01*
X90891440Y-137513497D01*
X90888168Y-137379462D01*
X90878196Y-137251898D01*
X90870622Y-137190636D01*
X90861285Y-137131105D01*
X90850154Y-137073341D01*
X90837201Y-137017383D01*
X90822394Y-136963267D01*
X90805706Y-136911032D01*
X90787106Y-136860715D01*
X90766564Y-136812354D01*
X90744052Y-136765985D01*
X90719539Y-136721648D01*
X90692997Y-136679378D01*
X90664395Y-136639214D01*
X90633704Y-136601194D01*
X90600894Y-136565354D01*
X90565936Y-136531733D01*
X90528801Y-136500367D01*
X90489458Y-136471296D01*
X90447879Y-136444555D01*
X90404033Y-136420182D01*
X90357891Y-136398216D01*
X90309424Y-136378693D01*
X90258602Y-136361652D01*
X90205396Y-136347129D01*
X90149775Y-136335163D01*
X90091711Y-136325790D01*
X90031173Y-136319049D01*
X89968133Y-136314977D01*
X89902560Y-136313611D01*
X89839837Y-136314711D01*
X89777388Y-136318036D01*
X89715340Y-136323627D01*
X89653821Y-136331522D01*
X89592956Y-136341763D01*
X89532873Y-136354388D01*
X89473699Y-136369437D01*
X89415561Y-136386951D01*
X89358586Y-136406968D01*
X89302900Y-136429528D01*
X89248631Y-136454672D01*
X89195905Y-136482438D01*
X89144850Y-136512867D01*
X89095592Y-136545999D01*
X89048259Y-136581873D01*
X89002977Y-136620528D01*
X89002977Y-134825330D01*
X87914878Y-135011531D01*
X87914878Y-139820002D01*
X85775955Y-139820002D01*
X85715400Y-139663934D01*
X85658087Y-139485699D01*
X85608042Y-139296127D01*
X85564973Y-139094928D01*
X85528589Y-138881811D01*
X85474717Y-138418661D01*
X85444098Y-137904352D01*
X85434409Y-137336557D01*
X85444098Y-136768762D01*
X85474717Y-136254453D01*
X85528589Y-135791302D01*
X85564973Y-135578186D01*
X85608042Y-135376987D01*
X85658087Y-135187415D01*
X85714644Y-135011531D01*
X85715400Y-135009180D01*
X85780270Y-134841990D01*
X85852988Y-134685556D01*
X85933846Y-134539586D01*
X86023133Y-134403790D01*
X86121140Y-134277877D01*
X86228159Y-134161557D01*
X86344479Y-134054538D01*
X86470392Y-133956531D01*
X86606188Y-133867244D01*
X86752158Y-133786386D01*
X86908592Y-133713668D01*
X87075782Y-133648798D01*
X87254017Y-133591485D01*
X87443589Y-133541440D01*
X87644788Y-133498371D01*
X87857904Y-133461987D01*
X88321055Y-133408115D01*
X88835364Y-133377496D01*
X89403159Y-133367807D01*
X89970954Y-133377496D01*
G37*
D11*
X105378479Y-138258809D02*
X105892526Y-138258809D01*
X105892526Y-138258809D02*
X105953002Y-138228571D01*
X105953002Y-138228571D02*
X105983241Y-138198333D01*
X105983241Y-138198333D02*
X106013479Y-138137857D01*
X106013479Y-138137857D02*
X106013479Y-138016904D01*
X106013479Y-138016904D02*
X105983241Y-137956428D01*
X105983241Y-137956428D02*
X105953002Y-137926190D01*
X105953002Y-137926190D02*
X105892526Y-137895952D01*
X105892526Y-137895952D02*
X105378479Y-137895952D01*
X106013479Y-137260952D02*
X106013479Y-137623809D01*
X106013479Y-137442381D02*
X105378479Y-137442381D01*
X105378479Y-137442381D02*
X105469193Y-137502857D01*
X105469193Y-137502857D02*
X105529669Y-137563333D01*
X105529669Y-137563333D02*
X105559907Y-137623809D01*
D12*
X142666667Y-157033200D02*
X142809524Y-157080819D01*
X142809524Y-157080819D02*
X143047619Y-157080819D01*
X143047619Y-157080819D02*
X143142857Y-157033200D01*
X143142857Y-157033200D02*
X143190476Y-156985580D01*
X143190476Y-156985580D02*
X143238095Y-156890342D01*
X143238095Y-156890342D02*
X143238095Y-156795104D01*
X143238095Y-156795104D02*
X143190476Y-156699866D01*
X143190476Y-156699866D02*
X143142857Y-156652247D01*
X143142857Y-156652247D02*
X143047619Y-156604628D01*
X143047619Y-156604628D02*
X142857143Y-156557009D01*
X142857143Y-156557009D02*
X142761905Y-156509390D01*
X142761905Y-156509390D02*
X142714286Y-156461771D01*
X142714286Y-156461771D02*
X142666667Y-156366533D01*
X142666667Y-156366533D02*
X142666667Y-156271295D01*
X142666667Y-156271295D02*
X142714286Y-156176057D01*
X142714286Y-156176057D02*
X142761905Y-156128438D01*
X142761905Y-156128438D02*
X142857143Y-156080819D01*
X142857143Y-156080819D02*
X143095238Y-156080819D01*
X143095238Y-156080819D02*
X143238095Y-156128438D01*
X143571429Y-156080819D02*
X143809524Y-157080819D01*
X143809524Y-157080819D02*
X144000000Y-156366533D01*
X144000000Y-156366533D02*
X144190476Y-157080819D01*
X144190476Y-157080819D02*
X144428572Y-156080819D01*
X145238095Y-156414152D02*
X145238095Y-157080819D01*
X145000000Y-156033200D02*
X144761905Y-156747485D01*
X144761905Y-156747485D02*
X145380952Y-156747485D01*
X123246667Y-157033200D02*
X123389524Y-157080819D01*
X123389524Y-157080819D02*
X123627619Y-157080819D01*
X123627619Y-157080819D02*
X123722857Y-157033200D01*
X123722857Y-157033200D02*
X123770476Y-156985580D01*
X123770476Y-156985580D02*
X123818095Y-156890342D01*
X123818095Y-156890342D02*
X123818095Y-156795104D01*
X123818095Y-156795104D02*
X123770476Y-156699866D01*
X123770476Y-156699866D02*
X123722857Y-156652247D01*
X123722857Y-156652247D02*
X123627619Y-156604628D01*
X123627619Y-156604628D02*
X123437143Y-156557009D01*
X123437143Y-156557009D02*
X123341905Y-156509390D01*
X123341905Y-156509390D02*
X123294286Y-156461771D01*
X123294286Y-156461771D02*
X123246667Y-156366533D01*
X123246667Y-156366533D02*
X123246667Y-156271295D01*
X123246667Y-156271295D02*
X123294286Y-156176057D01*
X123294286Y-156176057D02*
X123341905Y-156128438D01*
X123341905Y-156128438D02*
X123437143Y-156080819D01*
X123437143Y-156080819D02*
X123675238Y-156080819D01*
X123675238Y-156080819D02*
X123818095Y-156128438D01*
X124151429Y-156080819D02*
X124389524Y-157080819D01*
X124389524Y-157080819D02*
X124580000Y-156366533D01*
X124580000Y-156366533D02*
X124770476Y-157080819D01*
X124770476Y-157080819D02*
X125008572Y-156080819D01*
X125294286Y-156080819D02*
X125913333Y-156080819D01*
X125913333Y-156080819D02*
X125580000Y-156461771D01*
X125580000Y-156461771D02*
X125722857Y-156461771D01*
X125722857Y-156461771D02*
X125818095Y-156509390D01*
X125818095Y-156509390D02*
X125865714Y-156557009D01*
X125865714Y-156557009D02*
X125913333Y-156652247D01*
X125913333Y-156652247D02*
X125913333Y-156890342D01*
X125913333Y-156890342D02*
X125865714Y-156985580D01*
X125865714Y-156985580D02*
X125818095Y-157033200D01*
X125818095Y-157033200D02*
X125722857Y-157080819D01*
X125722857Y-157080819D02*
X125437143Y-157080819D01*
X125437143Y-157080819D02*
X125341905Y-157033200D01*
X125341905Y-157033200D02*
X125294286Y-156985580D01*
X104166667Y-157033200D02*
X104309524Y-157080819D01*
X104309524Y-157080819D02*
X104547619Y-157080819D01*
X104547619Y-157080819D02*
X104642857Y-157033200D01*
X104642857Y-157033200D02*
X104690476Y-156985580D01*
X104690476Y-156985580D02*
X104738095Y-156890342D01*
X104738095Y-156890342D02*
X104738095Y-156795104D01*
X104738095Y-156795104D02*
X104690476Y-156699866D01*
X104690476Y-156699866D02*
X104642857Y-156652247D01*
X104642857Y-156652247D02*
X104547619Y-156604628D01*
X104547619Y-156604628D02*
X104357143Y-156557009D01*
X104357143Y-156557009D02*
X104261905Y-156509390D01*
X104261905Y-156509390D02*
X104214286Y-156461771D01*
X104214286Y-156461771D02*
X104166667Y-156366533D01*
X104166667Y-156366533D02*
X104166667Y-156271295D01*
X104166667Y-156271295D02*
X104214286Y-156176057D01*
X104214286Y-156176057D02*
X104261905Y-156128438D01*
X104261905Y-156128438D02*
X104357143Y-156080819D01*
X104357143Y-156080819D02*
X104595238Y-156080819D01*
X104595238Y-156080819D02*
X104738095Y-156128438D01*
X105071429Y-156080819D02*
X105309524Y-157080819D01*
X105309524Y-157080819D02*
X105500000Y-156366533D01*
X105500000Y-156366533D02*
X105690476Y-157080819D01*
X105690476Y-157080819D02*
X105928572Y-156080819D01*
X106261905Y-156176057D02*
X106309524Y-156128438D01*
X106309524Y-156128438D02*
X106404762Y-156080819D01*
X106404762Y-156080819D02*
X106642857Y-156080819D01*
X106642857Y-156080819D02*
X106738095Y-156128438D01*
X106738095Y-156128438D02*
X106785714Y-156176057D01*
X106785714Y-156176057D02*
X106833333Y-156271295D01*
X106833333Y-156271295D02*
X106833333Y-156366533D01*
X106833333Y-156366533D02*
X106785714Y-156509390D01*
X106785714Y-156509390D02*
X106214286Y-157080819D01*
X106214286Y-157080819D02*
X106833333Y-157080819D01*
X85166667Y-157033200D02*
X85309524Y-157080819D01*
X85309524Y-157080819D02*
X85547619Y-157080819D01*
X85547619Y-157080819D02*
X85642857Y-157033200D01*
X85642857Y-157033200D02*
X85690476Y-156985580D01*
X85690476Y-156985580D02*
X85738095Y-156890342D01*
X85738095Y-156890342D02*
X85738095Y-156795104D01*
X85738095Y-156795104D02*
X85690476Y-156699866D01*
X85690476Y-156699866D02*
X85642857Y-156652247D01*
X85642857Y-156652247D02*
X85547619Y-156604628D01*
X85547619Y-156604628D02*
X85357143Y-156557009D01*
X85357143Y-156557009D02*
X85261905Y-156509390D01*
X85261905Y-156509390D02*
X85214286Y-156461771D01*
X85214286Y-156461771D02*
X85166667Y-156366533D01*
X85166667Y-156366533D02*
X85166667Y-156271295D01*
X85166667Y-156271295D02*
X85214286Y-156176057D01*
X85214286Y-156176057D02*
X85261905Y-156128438D01*
X85261905Y-156128438D02*
X85357143Y-156080819D01*
X85357143Y-156080819D02*
X85595238Y-156080819D01*
X85595238Y-156080819D02*
X85738095Y-156128438D01*
X86071429Y-156080819D02*
X86309524Y-157080819D01*
X86309524Y-157080819D02*
X86500000Y-156366533D01*
X86500000Y-156366533D02*
X86690476Y-157080819D01*
X86690476Y-157080819D02*
X86928572Y-156080819D01*
X87833333Y-157080819D02*
X87261905Y-157080819D01*
X87547619Y-157080819D02*
X87547619Y-156080819D01*
X87547619Y-156080819D02*
X87452381Y-156223676D01*
X87452381Y-156223676D02*
X87357143Y-156318914D01*
X87357143Y-156318914D02*
X87261905Y-156366533D01*
X146619047Y-136231009D02*
X146761904Y-136278628D01*
X146761904Y-136278628D02*
X146809523Y-136326247D01*
X146809523Y-136326247D02*
X146857142Y-136421485D01*
X146857142Y-136421485D02*
X146857142Y-136564342D01*
X146857142Y-136564342D02*
X146809523Y-136659580D01*
X146809523Y-136659580D02*
X146761904Y-136707200D01*
X146761904Y-136707200D02*
X146666666Y-136754819D01*
X146666666Y-136754819D02*
X146285714Y-136754819D01*
X146285714Y-136754819D02*
X146285714Y-135754819D01*
X146285714Y-135754819D02*
X146619047Y-135754819D01*
X146619047Y-135754819D02*
X146714285Y-135802438D01*
X146714285Y-135802438D02*
X146761904Y-135850057D01*
X146761904Y-135850057D02*
X146809523Y-135945295D01*
X146809523Y-135945295D02*
X146809523Y-136040533D01*
X146809523Y-136040533D02*
X146761904Y-136135771D01*
X146761904Y-136135771D02*
X146714285Y-136183390D01*
X146714285Y-136183390D02*
X146619047Y-136231009D01*
X146619047Y-136231009D02*
X146285714Y-136231009D01*
X147190476Y-135754819D02*
X147857142Y-135754819D01*
X147857142Y-135754819D02*
X147190476Y-136754819D01*
X147190476Y-136754819D02*
X147857142Y-136754819D01*
X148761904Y-136754819D02*
X148190476Y-136754819D01*
X148476190Y-136754819D02*
X148476190Y-135754819D01*
X148476190Y-135754819D02*
X148380952Y-135897676D01*
X148380952Y-135897676D02*
X148285714Y-135992914D01*
X148285714Y-135992914D02*
X148190476Y-136040533D01*
X143309048Y-141033866D02*
X144070953Y-141033866D01*
X143690000Y-141414819D02*
X143690000Y-140652914D01*
X72738095Y-127304819D02*
X72738095Y-126304819D01*
X72738095Y-126781009D02*
X73309523Y-126781009D01*
X73309523Y-127304819D02*
X73309523Y-126304819D01*
X73690476Y-126304819D02*
X74309523Y-126304819D01*
X74309523Y-126304819D02*
X73976190Y-126685771D01*
X73976190Y-126685771D02*
X74119047Y-126685771D01*
X74119047Y-126685771D02*
X74214285Y-126733390D01*
X74214285Y-126733390D02*
X74261904Y-126781009D01*
X74261904Y-126781009D02*
X74309523Y-126876247D01*
X74309523Y-126876247D02*
X74309523Y-127114342D01*
X74309523Y-127114342D02*
X74261904Y-127209580D01*
X74261904Y-127209580D02*
X74214285Y-127257200D01*
X74214285Y-127257200D02*
X74119047Y-127304819D01*
X74119047Y-127304819D02*
X73833333Y-127304819D01*
X73833333Y-127304819D02*
X73738095Y-127257200D01*
X73738095Y-127257200D02*
X73690476Y-127209580D01*
X72738095Y-172804819D02*
X72738095Y-171804819D01*
X72738095Y-172281009D02*
X73309523Y-172281009D01*
X73309523Y-172804819D02*
X73309523Y-171804819D01*
X73738095Y-171900057D02*
X73785714Y-171852438D01*
X73785714Y-171852438D02*
X73880952Y-171804819D01*
X73880952Y-171804819D02*
X74119047Y-171804819D01*
X74119047Y-171804819D02*
X74214285Y-171852438D01*
X74214285Y-171852438D02*
X74261904Y-171900057D01*
X74261904Y-171900057D02*
X74309523Y-171995295D01*
X74309523Y-171995295D02*
X74309523Y-172090533D01*
X74309523Y-172090533D02*
X74261904Y-172233390D01*
X74261904Y-172233390D02*
X73690476Y-172804819D01*
X73690476Y-172804819D02*
X74309523Y-172804819D01*
X157238095Y-172804819D02*
X157238095Y-171804819D01*
X157238095Y-172281009D02*
X157809523Y-172281009D01*
X157809523Y-172804819D02*
X157809523Y-171804819D01*
X158714285Y-172138152D02*
X158714285Y-172804819D01*
X158476190Y-171757200D02*
X158238095Y-172471485D01*
X158238095Y-172471485D02*
X158857142Y-172471485D01*
X157238095Y-127804819D02*
X157238095Y-126804819D01*
X157238095Y-127281009D02*
X157809523Y-127281009D01*
X157809523Y-127804819D02*
X157809523Y-126804819D01*
X158809523Y-127804819D02*
X158238095Y-127804819D01*
X158523809Y-127804819D02*
X158523809Y-126804819D01*
X158523809Y-126804819D02*
X158428571Y-126947676D01*
X158428571Y-126947676D02*
X158333333Y-127042914D01*
X158333333Y-127042914D02*
X158238095Y-127090533D01*
%TO.C,U1*%
D13*
X109015000Y-147914000D02*
X122985000Y-147914000D01*
X107110000Y-146009000D02*
X107110000Y-128864000D01*
X124890000Y-146009000D02*
X124890000Y-128864000D01*
X111505000Y-126959000D02*
X111508728Y-125948728D01*
D14*
X122985000Y-126959000D02*
X109015000Y-126959000D01*
D13*
X122985000Y-126959000D02*
X109015000Y-126959000D01*
X120504000Y-125949000D02*
X120504000Y-126959000D01*
X112008728Y-125449000D02*
X120004000Y-125449000D01*
X109015000Y-147914000D02*
G75*
G02*
X107110000Y-146009000I1J1905001D01*
G01*
X124890000Y-146009000D02*
G75*
G02*
X122985000Y-147914000I-1905001J1D01*
G01*
X107110000Y-128864000D02*
G75*
G02*
X109015000Y-126959000I1905000J0D01*
G01*
X122985000Y-126959000D02*
G75*
G02*
X124890000Y-128864000I0J-1905000D01*
G01*
X111508728Y-125948728D02*
G75*
G02*
X112008728Y-125449028I499972J-272D01*
G01*
X120004000Y-125449000D02*
G75*
G02*
X120504000Y-125949000I0J-500000D01*
G01*
D15*
X108395000Y-128130000D02*
G75*
G02*
X107891000Y-128130000I-252000J0D01*
G01*
X107891000Y-128130000D02*
G75*
G02*
X108395000Y-128130000I252000J0D01*
G01*
X107252000Y-127250000D02*
G75*
G02*
X106748000Y-127250000I-252000J0D01*
G01*
X106748000Y-127250000D02*
G75*
G02*
X107252000Y-127250000I252000J0D01*
G01*
%TO.C,SW4*%
D16*
X137015000Y-157515000D02*
X150985000Y-157515000D01*
X137015000Y-171485000D02*
X137015000Y-157515000D01*
X150985000Y-157515000D02*
X150985000Y-171485000D01*
X150985000Y-171485000D02*
X137015000Y-171485000D01*
%TO.C,SW3*%
X117595000Y-157515000D02*
X131565000Y-157515000D01*
X117595000Y-171485000D02*
X117595000Y-157515000D01*
X131565000Y-157515000D02*
X131565000Y-171485000D01*
X131565000Y-171485000D02*
X117595000Y-171485000D01*
%TO.C,SW2*%
X98515000Y-157515000D02*
X112485000Y-157515000D01*
X98515000Y-171485000D02*
X98515000Y-157515000D01*
X112485000Y-157515000D02*
X112485000Y-171485000D01*
X112485000Y-171485000D02*
X98515000Y-171485000D01*
%TO.C,SW1*%
X79515000Y-157515000D02*
X93485000Y-157515000D01*
X79515000Y-171485000D02*
X79515000Y-157515000D01*
X93485000Y-157515000D02*
X93485000Y-171485000D01*
X93485000Y-171485000D02*
X79515000Y-171485000D01*
%TO.C,BZ1*%
X153600000Y-143500000D02*
G75*
G02*
X141400000Y-143500000I-6100000J0D01*
G01*
X141400000Y-143500000D02*
G75*
G02*
X153600000Y-143500000I6100000J0D01*
G01*
%TD*%
M02*
