%TF.GenerationSoftware,KiCad,Pcbnew,10.0.6*%
%TF.CreationDate,2026-09-23T20:02:54-03:00*%
%TF.ProjectId,blare,626c6172-652e-46b6-9963-61645f706362,rev?*%
%TF.SameCoordinates,Original*%
%TF.FileFunction,Copper,L1,Top*%
%TF.FilePolarity,Positive*%
%FSLAX46Y46*%
G04 Gerber Fmt 4.6, Leading zero omitted, Abs format (unit mm)*
G04 Created by KiCad (PCBNEW 10.0.6) date 2026-09-23 20:02:54*
%MOMM*%
%LPD*%
G01*
G04 APERTURE LIST*
G04 Aperture macros list*
%AMRoundRect*
0 Rectangle with rounded corners*
0 $1 Rounding radius*
0 $2 $3 $4 $5 $6 $7 $8 $9 X,Y pos of 4 corners*
0 Add a 4 corners polygon primitive as box body*
4,1,4,$2,$3,$4,$5,$6,$7,$8,$9,$2,$3,0*
0 Add four circle primitives for the rounded corners*
1,1,$1+$1,$2,$3*
1,1,$1+$1,$4,$5*
1,1,$1+$1,$6,$7*
1,1,$1+$1,$8,$9*
0 Add four rect primitives between the rounded corners*
20,1,$1+$1,$2,$3,$4,$5,0*
20,1,$1+$1,$4,$5,$6,$7,0*
20,1,$1+$1,$6,$7,$8,$9,0*
20,1,$1+$1,$8,$9,$2,$3,0*%
G04 Aperture macros list end*
%TA.AperFunction,ComponentPad*%
%ADD10C,1.700000*%
%TD*%
%TA.AperFunction,ComponentPad*%
%ADD11R,1.700000X1.700000*%
%TD*%
%TA.AperFunction,SMDPad,CuDef*%
%ADD12RoundRect,0.152400X1.063600X0.609600X-1.063600X0.609600X-1.063600X-0.609600X1.063600X-0.609600X0*%
%TD*%
%TA.AperFunction,ComponentPad*%
%ADD13C,1.524000*%
%TD*%
%TA.AperFunction,SMDPad,CuDef*%
%ADD14RoundRect,0.152400X-1.063600X-0.609600X1.063600X-0.609600X1.063600X0.609600X-1.063600X0.609600X0*%
%TD*%
%TA.AperFunction,ComponentPad*%
%ADD15C,2.200000*%
%TD*%
%TA.AperFunction,ComponentPad*%
%ADD16R,2.000000X2.000000*%
%TD*%
%TA.AperFunction,ComponentPad*%
%ADD17C,2.000000*%
%TD*%
%TA.AperFunction,Conductor*%
%ADD18C,0.200000*%
%TD*%
G04 APERTURE END LIST*
D10*
%TO.P,J1,8,Pin_8_8*%
%TO.N,BL*%
X81220000Y-149500000D03*
%TO.P,J1,7,Pin_7_7*%
%TO.N,CS*%
X83760000Y-149500000D03*
%TO.P,J1,6,Pin_6_6*%
%TO.N,DC*%
X86300000Y-149500000D03*
%TO.P,J1,5,Pin_5_5*%
%TO.N,RST*%
X88840000Y-149500000D03*
%TO.P,J1,4,Pin_4_4*%
%TO.N,SDA*%
X91380000Y-149500000D03*
%TO.P,J1,3,Pin_3_3*%
%TO.N,SCL*%
X93920000Y-149500000D03*
%TO.P,J1,2,Pin_2_2*%
%TO.N,+3V3*%
X96460000Y-149500000D03*
D11*
%TO.P,J1,1,Pin_1_1*%
%TO.N,GND*%
X99000000Y-149500000D03*
%TD*%
D12*
%TO.P,U1,1,D0_1*%
%TO.N,SW4*%
X107545000Y-129880000D03*
D13*
X108380000Y-129880000D03*
D12*
%TO.P,U1,2,D1_2*%
%TO.N,SW3*%
X107545000Y-132420000D03*
D13*
X108380000Y-132420000D03*
D12*
%TO.P,U1,3,D2_3*%
%TO.N,SW2*%
X107545000Y-134960000D03*
D13*
X108380000Y-134960000D03*
D12*
%TO.P,U1,4,D3_4*%
%TO.N,SW1*%
X107545000Y-137500000D03*
D13*
X108380000Y-137500000D03*
D12*
%TO.P,U1,5,D4_5*%
%TO.N,DC*%
X107545000Y-140040000D03*
D13*
X108380000Y-140040000D03*
D12*
%TO.P,U1,6,D5_6*%
%TO.N,CS*%
X107545000Y-142580000D03*
D13*
X108380000Y-142580000D03*
D12*
%TO.P,U1,7,D6_7*%
%TO.N,BL*%
X107545000Y-145120000D03*
D13*
X108380000Y-145120000D03*
%TO.P,U1,8,D7_8*%
%TO.N,BUZZER+*%
X123620000Y-145120000D03*
D14*
X124455000Y-145120000D03*
D13*
%TO.P,U1,9,D8_9*%
%TO.N,RST*%
X123620000Y-142580000D03*
D14*
X124455000Y-142580000D03*
D13*
%TO.P,U1,10,D9/BOOT_10*%
%TO.N,SCL*%
X123620000Y-140040000D03*
D14*
X124455000Y-140040000D03*
D13*
%TO.P,U1,11,D10_11*%
%TO.N,SDA*%
X123620000Y-137500000D03*
D14*
X124455000Y-137500000D03*
D13*
%TO.P,U1,12,3V3_OUT_12*%
%TO.N,+3V3*%
X123620000Y-134960000D03*
D14*
X124455000Y-134960000D03*
D13*
%TO.P,U1,13,GND_13*%
%TO.N,GND*%
X123620000Y-132420000D03*
D14*
X124455000Y-132420000D03*
D13*
%TO.P,U1,14,VBUS_14*%
%TO.N,unconnected-(U1-VBUS-Pad14)*%
X123620000Y-129880000D03*
D14*
%TO.N,unconnected-(U1-VBUS-Pad14)_1*%
X124455000Y-129880000D03*
%TD*%
D15*
%TO.P,SW4,1,1_1*%
%TO.N,GND*%
X146540000Y-159420000D03*
%TO.P,SW4,2,2_2*%
%TO.N,SW4*%
X140190000Y-161960000D03*
%TD*%
%TO.P,SW3,1,1_1*%
%TO.N,GND*%
X127120000Y-159420000D03*
%TO.P,SW3,2,2_2*%
%TO.N,SW3*%
X120770000Y-161960000D03*
%TD*%
%TO.P,SW2,1,1_1*%
%TO.N,GND*%
X108040000Y-159420000D03*
%TO.P,SW2,2,2_2*%
%TO.N,SW2*%
X101690000Y-161960000D03*
%TD*%
%TO.P,SW1,1,1_1*%
%TO.N,GND*%
X89040000Y-159420000D03*
%TO.P,SW1,2,2_2*%
%TO.N,SW1*%
X82690000Y-161960000D03*
%TD*%
D16*
%TO.P,BZ1,1,+_1*%
%TO.N,BUZZER+*%
X143700000Y-143500000D03*
D17*
%TO.P,BZ1,2,-_2*%
%TO.N,GND*%
X151300000Y-143500000D03*
%TD*%
%TO.N,SW4*%
D18*
X108380000Y-129880000D02*
X107545000Y-129880000D01*
%TO.N,SW3*%
X108380000Y-132420000D02*
X107545000Y-132420000D01*
%TO.N,SW2*%
X108380000Y-134960000D02*
X107545000Y-134960000D01*
%TO.N,SW1*%
X108380000Y-137500000D02*
X107545000Y-137500000D01*
%TO.N,RST*%
X115121600Y-151078400D02*
X123620000Y-142580000D01*
X90418400Y-151078400D02*
X115121600Y-151078400D01*
X88840000Y-149500000D02*
X90418400Y-151078400D01*
X124455000Y-142580000D02*
X123620000Y-142580000D01*
%TO.N,BL*%
X85600000Y-145120000D02*
X81220000Y-149500000D01*
X107545000Y-145120000D02*
X85600000Y-145120000D01*
X108380000Y-145120000D02*
X107545000Y-145120000D01*
%TO.N,CS*%
X108380000Y-142580000D02*
X107545000Y-142580000D01*
X86987400Y-146272600D02*
X83760000Y-149500000D01*
X108745700Y-146272600D02*
X86987400Y-146272600D01*
X109477000Y-145541300D02*
X108745700Y-146272600D01*
X109477000Y-143677000D02*
X109477000Y-145541300D01*
X108380000Y-142580000D02*
X109477000Y-143677000D01*
%TO.N,SDA*%
X124455000Y-137500000D02*
X123620000Y-137500000D01*
X93943200Y-146936800D02*
X91380000Y-149500000D01*
X93943200Y-146936700D02*
X93943200Y-146936800D01*
X114183300Y-146936700D02*
X93943200Y-146936700D01*
X123620000Y-137500000D02*
X114183300Y-146936700D01*
%TO.N,SCL*%
X95083400Y-150663400D02*
X93920000Y-149500000D01*
X112996600Y-150663400D02*
X95083400Y-150663400D01*
X123620000Y-140040000D02*
X112996600Y-150663400D01*
X124455000Y-140040000D02*
X123620000Y-140040000D01*
%TO.N,BUZZER+*%
X124455000Y-145120000D02*
X123620000Y-145120000D01*
X140778300Y-145120000D02*
X124455000Y-145120000D01*
X142398300Y-143500000D02*
X140778300Y-145120000D01*
X143700000Y-143500000D02*
X142398300Y-143500000D01*
%TO.N,DC*%
X108380000Y-140040000D02*
X107545000Y-140040000D01*
%TO.N,+3V3*%
X123620000Y-134960000D02*
X124455000Y-134960000D01*
X98574200Y-147385800D02*
X96460000Y-149500000D01*
X114758300Y-147385800D02*
X98574200Y-147385800D01*
X123373800Y-138770300D02*
X114758300Y-147385800D01*
X125561900Y-138770300D02*
X123373800Y-138770300D01*
X126017000Y-138315200D02*
X125561900Y-138770300D01*
X126017000Y-136522000D02*
X126017000Y-138315200D01*
X124455000Y-134960000D02*
X126017000Y-136522000D01*
%TO.N,GND*%
X108040000Y-159420000D02*
X89040000Y-159420000D01*
X123620000Y-132420000D02*
X124455000Y-132420000D01*
X127120000Y-159420000D02*
X108040000Y-159420000D01*
X146540000Y-159420000D02*
X127120000Y-159420000D01*
%TD*%
M02*
