%TF.GenerationSoftware,KiCad,Pcbnew,10.0.6*%
%TF.CreationDate,2026-09-23T20:02:54-03:00*%
%TF.ProjectId,blare,626c6172-652e-46b6-9963-61645f706362,rev?*%
%TF.SameCoordinates,Original*%
%TF.FileFunction,Soldermask,Top*%
%TF.FilePolarity,Negative*%
%FSLAX46Y46*%
G04 Gerber Fmt 4.6, Leading zero omitted, Abs format (unit mm)*
G04 Created by KiCad (PCBNEW 10.0.6) date 2026-09-23 20:02:54*
%MOMM*%
%LPD*%
G01*
G04 APERTURE LIST*
G04 Aperture macros list*
%AMRoundRect*
0 Rectangle with rounded corners*
0 $1 Rounding radius*
0 $2 $3 $4 $5 $6 $7 $8 $9 X,Y pos of 4 corners*
0 Add a 4 corners polygon primitive as box body*
4,1,4,$2,$3,$4,$5,$6,$7,$8,$9,$2,$3,0*
0 Add four circle primitives for the rounded corners*
1,1,$1+$1,$2,$3*
1,1,$1+$1,$4,$5*
1,1,$1+$1,$6,$7*
1,1,$1+$1,$8,$9*
0 Add four rect primitives between the rounded corners*
20,1,$1+$1,$2,$3,$4,$5,0*
20,1,$1+$1,$4,$5,$6,$7,0*
20,1,$1+$1,$6,$7,$8,$9,0*
20,1,$1+$1,$8,$9,$2,$3,0*%
G04 Aperture macros list end*
%ADD10C,1.700000*%
%ADD11R,1.700000X1.700000*%
%ADD12RoundRect,0.152400X1.063600X0.609600X-1.063600X0.609600X-1.063600X-0.609600X1.063600X-0.609600X0*%
%ADD13C,1.524000*%
%ADD14RoundRect,0.152400X-1.063600X-0.609600X1.063600X-0.609600X1.063600X0.609600X-1.063600X0.609600X0*%
%ADD15C,4.000000*%
%ADD16C,2.200000*%
%ADD17R,2.000000X2.000000*%
%ADD18C,2.000000*%
%ADD19C,3.200000*%
G04 APERTURE END LIST*
D10*
%TO.C,J1*%
X81220000Y-149500000D03*
X83760000Y-149500000D03*
X86300000Y-149500000D03*
X88840000Y-149500000D03*
X91380000Y-149500000D03*
X93920000Y-149500000D03*
X96460000Y-149500000D03*
D11*
X99000000Y-149500000D03*
%TD*%
D12*
%TO.C,U1*%
X107545000Y-129880000D03*
D13*
X108380000Y-129880000D03*
D12*
X107545000Y-132420000D03*
D13*
X108380000Y-132420000D03*
D12*
X107545000Y-134960000D03*
D13*
X108380000Y-134960000D03*
D12*
X107545000Y-137500000D03*
D13*
X108380000Y-137500000D03*
D12*
X107545000Y-140040000D03*
D13*
X108380000Y-140040000D03*
D12*
X107545000Y-142580000D03*
D13*
X108380000Y-142580000D03*
D12*
X107545000Y-145120000D03*
D13*
X108380000Y-145120000D03*
X123620000Y-145120000D03*
D14*
X124455000Y-145120000D03*
D13*
X123620000Y-142580000D03*
D14*
X124455000Y-142580000D03*
D13*
X123620000Y-140040000D03*
D14*
X124455000Y-140040000D03*
D13*
X123620000Y-137500000D03*
D14*
X124455000Y-137500000D03*
D13*
X123620000Y-134960000D03*
D14*
X124455000Y-134960000D03*
D13*
X123620000Y-132420000D03*
D14*
X124455000Y-132420000D03*
D13*
X123620000Y-129880000D03*
D14*
X124455000Y-129880000D03*
%TD*%
D10*
%TO.C,SW4*%
X138920000Y-164500000D03*
D15*
X144000000Y-164500000D03*
D10*
X149080000Y-164500000D03*
D16*
X146540000Y-159420000D03*
X140190000Y-161960000D03*
%TD*%
D10*
%TO.C,SW3*%
X119500000Y-164500000D03*
D15*
X124580000Y-164500000D03*
D10*
X129660000Y-164500000D03*
D16*
X127120000Y-159420000D03*
X120770000Y-161960000D03*
%TD*%
D10*
%TO.C,SW2*%
X100420000Y-164500000D03*
D15*
X105500000Y-164500000D03*
D10*
X110580000Y-164500000D03*
D16*
X108040000Y-159420000D03*
X101690000Y-161960000D03*
%TD*%
D10*
%TO.C,SW1*%
X81420000Y-164500000D03*
D15*
X86500000Y-164500000D03*
D10*
X91580000Y-164500000D03*
D16*
X89040000Y-159420000D03*
X82690000Y-161960000D03*
%TD*%
D17*
%TO.C,BZ1*%
X143700000Y-143500000D03*
D18*
X151300000Y-143500000D03*
%TD*%
D19*
%TO.C,H3*%
X73500000Y-131000000D03*
%TD*%
%TO.C,H2*%
X73500000Y-176500000D03*
%TD*%
%TO.C,H4*%
X158000000Y-176500000D03*
%TD*%
%TO.C,H1*%
X158000000Y-131500000D03*
%TD*%
M02*
