%TF.GenerationSoftware,KiCad,Pcbnew,10.0.6*%
%TF.CreationDate,2026-09-23T20:02:54-03:00*%
%TF.ProjectId,blare,626c6172-652e-46b6-9963-61645f706362,rev?*%
%TF.SameCoordinates,Original*%
%TF.FileFunction,Soldermask,Bot*%
%TF.FilePolarity,Negative*%
%FSLAX46Y46*%
G04 Gerber Fmt 4.6, Leading zero omitted, Abs format (unit mm)*
G04 Created by KiCad (PCBNEW 10.0.6) date 2026-09-23 20:02:54*
%MOMM*%
%LPD*%
G01*
G04 APERTURE LIST*
%ADD10C,1.700000*%
%ADD11R,1.700000X1.700000*%
%ADD12C,1.524000*%
%ADD13C,4.000000*%
%ADD14C,2.200000*%
%ADD15R,2.000000X2.000000*%
%ADD16C,2.000000*%
%ADD17C,3.200000*%
G04 APERTURE END LIST*
D10*
%TO.C,J1*%
X81220000Y-149500000D03*
X83760000Y-149500000D03*
X86300000Y-149500000D03*
X88840000Y-149500000D03*
X91380000Y-149500000D03*
X93920000Y-149500000D03*
X96460000Y-149500000D03*
D11*
X99000000Y-149500000D03*
%TD*%
D12*
%TO.C,U1*%
X108380000Y-129880000D03*
X108380000Y-132420000D03*
X108380000Y-134960000D03*
X108380000Y-137500000D03*
X108380000Y-140040000D03*
X108380000Y-142580000D03*
X108380000Y-145120000D03*
X123620000Y-145120000D03*
X123620000Y-142580000D03*
X123620000Y-140040000D03*
X123620000Y-137500000D03*
X123620000Y-134960000D03*
X123620000Y-132420000D03*
X123620000Y-129880000D03*
%TD*%
D10*
%TO.C,SW4*%
X138920000Y-164500000D03*
D13*
X144000000Y-164500000D03*
D10*
X149080000Y-164500000D03*
D14*
X146540000Y-159420000D03*
X140190000Y-161960000D03*
%TD*%
D10*
%TO.C,SW3*%
X119500000Y-164500000D03*
D13*
X124580000Y-164500000D03*
D10*
X129660000Y-164500000D03*
D14*
X127120000Y-159420000D03*
X120770000Y-161960000D03*
%TD*%
D10*
%TO.C,SW2*%
X100420000Y-164500000D03*
D13*
X105500000Y-164500000D03*
D10*
X110580000Y-164500000D03*
D14*
X108040000Y-159420000D03*
X101690000Y-161960000D03*
%TD*%
D10*
%TO.C,SW1*%
X81420000Y-164500000D03*
D13*
X86500000Y-164500000D03*
D10*
X91580000Y-164500000D03*
D14*
X89040000Y-159420000D03*
X82690000Y-161960000D03*
%TD*%
D15*
%TO.C,BZ1*%
X143700000Y-143500000D03*
D16*
X151300000Y-143500000D03*
%TD*%
D17*
%TO.C,H3*%
X73500000Y-131000000D03*
%TD*%
%TO.C,H2*%
X73500000Y-176500000D03*
%TD*%
%TO.C,H4*%
X158000000Y-176500000D03*
%TD*%
%TO.C,H1*%
X158000000Y-131500000D03*
%TD*%
M02*
