M48
; DRILL file KiCad 10.0.6 date 2026-09-23T20:03:13
; FORMAT={-:-/ absolute / metric / decimal}
; #@! TF.CreationDate,2026-09-23T20:03:13-03:00
; #@! TF.GenerationSoftware,Kicad,Pcbnew,10.0.6
; #@! TF.FileFunction,Plated,1,2,PTH
FMAT,2
METRIC
; #@! TA.AperFunction,Plated,PTH,ComponentDrill
T1C0.889
; #@! TA.AperFunction,Plated,PTH,ComponentDrill
T2C1.000
; #@! TA.AperFunction,Plated,PTH,ComponentDrill
T3C1.500
%
G90
G05
T1
X108.38Y-129.88
X108.38Y-132.42
X108.38Y-134.96
X108.38Y-137.5
X108.38Y-140.04
X108.38Y-142.58
X108.38Y-145.12
X123.62Y-129.88
X123.62Y-132.42
X123.62Y-134.96
X123.62Y-137.5
X123.62Y-140.04
X123.62Y-142.58
X123.62Y-145.12
T2
X81.22Y-149.5
X83.76Y-149.5
X86.3Y-149.5
X88.84Y-149.5
X91.38Y-149.5
X93.92Y-149.5
X96.46Y-149.5
X99.0Y-149.5
X143.7Y-143.5
X151.3Y-143.5
T3
X82.69Y-161.96
X89.04Y-159.42
X101.69Y-161.96
X108.04Y-159.42
X120.77Y-161.96
X127.12Y-159.42
X140.19Y-161.96
X146.54Y-159.42
M30
